<svg xmlns="http://www.w3.org/2000/svg" viewBox="0 0 684 1024" aria-hidden="true">
  <style>
    path { fill: #000; }
    @media (prefers-color-scheme: dark) { path { fill: #fff; } }
  </style>
  <path fill-rule="evenodd" d="M 195.694 5.920 L 190.536 10.840 193.768 14.861 C 196.720 18.534, 197 19.490, 197 25.882 C 197 33.357, 195.950 35.169, 193.108 32.598 C 190.708 30.426, 186.177 30.595, 182.226 33.004 C 180.425 34.102, 178.777 35, 178.564 35 C 178.350 35, 177.865 33.087, 177.484 30.750 C 177.104 28.412, 176.113 25.038, 175.283 23.250 C 173.901 20.278, 173.382 20, 169.201 20 C 166.110 20, 163.960 19.387, 162.564 18.108 C 159.243 15.064, 154.500 14.500, 152.132 16.868 C 150.496 18.504, 149.933 18.624, 149.026 17.531 C 146.389 14.354, 138 15.115, 138 18.532 C 138 19.966, 137.793 19.969, 135.777 18.557 C 132.618 16.343, 129.281 16.628, 126.566 19.343 C 124.897 21.012, 123.400 21.569, 121.361 21.277 C 119.046 20.946, 117.497 21.786, 113.243 25.684 C 108.607 29.930, 107.986 30.964, 107.993 34.421 C 107.997 36.578, 108.636 39.053, 109.414 39.921 C 110.541 41.181, 110.714 44.074, 110.269 54.220 L 109.712 66.941 96.730 81.220 C 47.914 134.916, 33.682 154.530, 12.910 196.727 C 1.261 220.391, 0.002 223.469, 0.022 228.227 C 0.052 235.558, 2.628 240.452, 10.315 247.787 C 16.064 253.272, 19.366 255.262, 36.202 263.382 C 46.816 268.502, 62.250 276.529, 70.500 281.220 C 90.449 292.564, 97.798 296.186, 114.836 303.069 C 122.720 306.254, 131.682 310.354, 134.751 312.180 C 141.100 315.958, 154.406 328.552, 155.418 331.741 C 155.936 333.375, 154.384 336.240, 148.678 344.182 C 144.601 349.857, 140.318 356.369, 139.162 358.653 C 137.156 362.612, 137.139 362.914, 138.779 365.153 C 139.726 366.444, 141.625 369.675, 143 372.333 C 144.375 374.991, 147.899 379.827, 150.831 383.080 L 156.163 388.994 154.646 393.747 C 150.593 406.448, 149 423.187, 149 453.076 L 149 477.231 140.119 491.366 C 121.869 520.410, 105.048 551.940, 98.677 569.044 C 88.871 595.370, 75.977 645.369, 69.475 682.279 C 61.036 730.191, 66.722 809.595, 81.903 855.827 C 95.620 897.600, 113.893 926.486, 143.285 952.860 C 172.860 979.399, 195.163 992.581, 231.366 1004.921 C 255.094 1013.009, 277.999 1017.797, 311 1021.568 C 343.528 1025.286, 383.052 1021.184, 414.500 1010.827 C 440.631 1002.221, 472.249 981.891, 494.588 959.330 C 515.417 938.295, 527.764 913.480, 535.902 876.299 C 541.233 851.941, 548.457 803.613, 551.567 771.500 C 552.979 756.929, 568.706 698.949, 576.641 679.066 C 579.179 672.705, 583.233 663.552, 585.650 658.727 C 589.357 651.323, 589.795 649.859, 588.456 649.345 C 584.003 647.636, 553.095 652.642, 542 656.869 C 534.728 659.640, 517.156 669.452, 503.500 678.367 L 492.500 685.548 485 684.364 C 468.709 681.794, 443.609 680.618, 432.760 681.916 C 415.498 683.982, 386.915 690.752, 384.265 693.402 C 383.973 693.694, 388.678 701.261, 394.721 710.217 C 409.242 731.736, 417.636 745.934, 425.423 762.150 C 437.371 787.029, 440.431 799.606, 440.472 824 C 440.493 836.627, 440.065 842.355, 438.648 848.402 C 431.295 879.774, 410.756 907.614, 389.434 915.108 C 375.051 920.163, 348.631 919.462, 330.573 913.547 C 299.324 903.311, 281.075 887.643, 268.067 859.883 C 259.912 842.481, 256.974 826.550, 258.961 810.500 C 262.650 780.689, 271.134 749.913, 291.489 692.500 C 303.749 657.920, 310.398 622.547, 310.382 592 C 310.370 570.624, 308.561 563.425, 294.629 529.304 C 286.891 510.355, 284.602 502.139, 285.461 496.408 C 286.366 490.375, 293.002 477.894, 305.618 458.500 C 327.620 424.676, 340.518 401.076, 350.433 376.500 C 357.355 359.344, 360.922 352.636, 363.372 352.166 C 365.817 351.696, 373 354.951, 373 356.527 C 373 357.200, 371.828 360.395, 370.395 363.626 C 364.295 377.382, 360.036 391.910, 357.441 407.812 C 355.155 421.823, 355.885 450.246, 358.884 464 C 366.909 500.802, 384.889 531.947, 411.698 555.487 C 436.617 577.368, 465.930 590.722, 498.570 595.066 C 511.559 596.794, 540.825 595.726, 553.159 593.074 C 617.735 579.185, 667.135 529.367, 681.150 464 C 684.132 450.093, 684.442 416.518, 681.715 402.905 C 677.146 380.094, 666.013 353.918, 653.261 336 C 644.596 323.825, 627.150 306.383, 615 297.749 C 597.745 285.486, 574.777 275.420, 553.500 270.796 C 540.284 267.924, 511.169 267.220, 496.269 269.412 C 467.327 273.669, 439.131 286.019, 416.512 304.345 L 407.525 311.628 392.512 304.411 C 384.256 300.441, 368.725 293.504, 358 288.994 C 333.347 278.626, 318.093 270.766, 312.544 265.569 C 306.822 260.209, 305.070 254.268, 304.288 237.582 C 303.708 225.206, 303.762 224.695, 305.570 225.389 C 311.441 227.641, 322.981 230.354, 326 230.191 C 337.367 229.577, 340.089 229.162, 345.718 227.184 C 349.139 225.983, 352.538 225, 353.273 225 C 355.464 225, 364.154 219.058, 363.503 218.005 C 363.172 217.470, 364.454 215.479, 366.351 213.582 C 369.642 210.292, 372.828 203.495, 371.639 202.305 C 371.330 201.997, 368.838 202.477, 366.101 203.372 C 363.364 204.267, 360.889 205, 360.601 205 C 360.313 205, 361.636 201.750, 363.539 197.778 C 365.822 193.014, 367 189.101, 367 186.278 C 367 181.257, 365.983 180.948, 359.817 184.093 C 355.992 186.045, 355.766 186.061, 356.472 184.343 C 356.889 183.329, 357.562 177.775, 357.968 172 C 358.989 157.469, 357.287 153.872, 352.036 159.461 C 350.165 161.454, 349.352 161.723, 347.769 160.876 C 346.694 160.301, 344.763 160.094, 343.478 160.416 C 341.186 160.991, 341.134 160.838, 340.715 152.251 C 340.468 147.190, 339.234 139.781, 337.789 134.680 C 335.514 126.648, 334.816 125.407, 329.969 120.784 C 326.523 117.497, 323.322 115.410, 320.889 114.864 C 318.823 114.399, 314.065 111.693, 310.316 108.849 C 296.875 98.652, 285.700 95.465, 266.500 96.353 C 244.356 97.378, 233.957 101.750, 220 115.905 C 207.658 128.422, 199.761 142.138, 197.504 154.978 C 196.315 161.739, 194.992 165.135, 190.444 173.098 C 183.942 184.482, 183.796 186.608, 189.319 189.500 C 193.038 191.448, 193.118 191.604, 192.374 195.500 C 191.008 202.655, 191.776 210.330, 194.011 211.872 C 195.674 213.019, 196 214.384, 196 220.188 C 196 227.616, 196.889 230.321, 199.722 231.512 C 200.700 231.923, 207.309 232.576, 214.409 232.964 C 226.821 233.641, 227.408 233.773, 229.659 236.390 C 233.019 240.296, 232.816 246.771, 229.087 254.655 C 227.342 258.342, 225.357 261.069, 224.134 261.457 C 221.831 262.188, 212.901 260.748, 202.500 257.967 C 198.650 256.938, 189.200 255.156, 181.500 254.008 C 163.714 251.356, 162.374 250.982, 145.404 243.927 C 125.992 235.855, 115.652 232.530, 100.747 229.567 C 89.182 227.267, 81.964 224.638, 75.368 220.320 C 73.249 218.933, 73.265 218.878, 78.149 210.752 C 83.109 202.499, 85.932 194.584, 92.112 171.596 C 94.676 162.063, 97.464 155.392, 106.116 138.096 C 112.058 126.218, 119.150 113.575, 121.877 110 C 124.604 106.425, 132.610 97.812, 139.668 90.860 L 152.500 78.221 160.093 76.545 C 169.934 74.373, 172.952 72.433, 177.957 65.064 L 182.075 59 189.537 59 L 197 59 197 67.826 C 197 75.947, 196.800 76.839, 194.500 79 C 193.125 80.292, 192 81.859, 192 82.484 C 192 83.108, 194.218 86.067, 196.928 89.060 L 201.856 94.500 207.465 88.952 L 213.075 83.403 210.037 79.210 C 207.313 75.449, 207.002 74.269, 207.015 67.759 C 207.024 63.766, 207.361 59.991, 207.765 59.369 C 208.518 58.210, 237.214 55.921, 275 54.007 C 300.250 52.728, 360.684 52.724, 378 54 C 436.939 58.344, 486.883 69.069, 523.770 85.303 C 537.101 91.170, 553.565 100.644, 564.500 108.741 C 575.681 117.021, 597.332 138.456, 606.931 150.750 C 610.904 155.837, 614.524 160, 614.977 160 C 616.516 160, 618.234 150.045, 617.518 145.273 C 615.783 133.700, 610.944 125.886, 596.082 110.657 C 577.118 91.224, 565.895 82.976, 542.406 71.206 C 495.516 47.711, 431.441 32.035, 365.500 27.927 C 341.466 26.429, 273.162 27.293, 245.500 29.444 C 234.500 30.299, 221.338 31.292, 216.250 31.650 L 207 32.302 207 24.838 C 207 17.841, 207.189 17.193, 210.016 14.485 L 213.032 11.595 207.800 6.298 C 204.923 3.384, 202.182 1, 201.710 1 C 201.238 1, 198.530 3.214, 195.694 5.920" />
</svg>